<svg width="12" height="22" viewBox="0 0 12 22" fill="none" xmlns="http://www.w3.org/2000/svg">
<path d="M0.00153477 10.6578C0.015816 11.0902 0.188422 11.5024 0.486854 11.8161L8.95873 20.641C9.39628 21.0963 10.0434 21.2834 10.6563 21.1322C11.2691 20.9808 11.755 20.5142 11.9303 19.9077C12.1058 19.3012 11.9445 18.6473 11.507 18.192L4.21512 10.5919L11.507 2.99174C11.9445 2.53646 12.1058 1.88245 11.9303 1.276C11.7549 0.669531 11.2692 0.202953 10.6563 0.0514804C10.0434 -0.0997023 9.39632 0.0874298 8.95873 0.542711L0.486854 9.36759C0.156659 9.71428 -0.0184094 10.1802 0.00153477 10.6584L0.00153477 10.6578Z" fill="white"/>
</svg>
