<svg width="12" height="22" viewBox="0 0 12 22" fill="none" xmlns="http://www.w3.org/2000/svg">
<path d="M11.9985 11.3422C11.9842 10.9098 11.8116 10.4976 11.5131 10.1839L3.04127 1.35901C2.60372 0.903726 1.95663 0.716617 1.34374 0.867774C0.730872 1.0192 0.245044 1.48581 0.0697438 2.09229C-0.105821 2.69876 0.0554623 3.35273 0.49301 3.80804L7.78488 11.4081L0.493007 19.0083C0.0554568 19.4635 -0.105824 20.1175 0.0697404 20.724C0.245053 21.3305 0.730849 21.797 1.34374 21.9485C1.95661 22.0997 2.60368 21.9126 3.04127 21.4573L11.5131 12.6324C11.8433 12.2857 12.0184 11.8198 11.9985 11.3416L11.9985 11.3422Z" fill="white"/>
</svg>
