<svg width="26" height="24" viewBox="0 0 26 24" fill="none" xmlns="http://www.w3.org/2000/svg">
<path d="M0.81989 1.66254C-0.273297 1.66254 -0.273297 0 0.81989 0H7.33152C7.74017 0 8.08036 0.295642 8.14983 0.684206L9.08882 4.70536H24.5703C25.131 4.7164 25.5363 5.24758 25.3593 5.79301L22.6309 14.1698C22.5395 14.5292 22.2132 14.7956 21.8253 14.7956H11.4455L11.8218 16.4079H23.1029C24.1961 16.4079 24.1961 18.0704 23.1029 18.0704H11.1635C10.7858 18.0697 10.444 17.8108 10.3549 17.4274C9.12765 12.1723 7.90041 6.91766 6.67347 1.66215L0.81989 1.66254ZM13.7052 19.3293C14.9912 19.3293 16.0403 20.378 16.0403 21.6648C16.0403 22.9498 14.9903 24 13.7052 24C12.4168 24 11.3696 22.9534 11.3696 21.6648C11.3696 20.3784 12.418 19.3293 13.7052 19.3293ZM20.4028 19.3293C21.6929 19.3293 22.7383 20.3746 22.7383 21.6648C22.7383 22.9509 21.6896 24 20.4028 24C19.1144 24 18.0673 22.9534 18.0673 21.6648C18.0673 20.3784 19.1156 19.3293 20.4028 19.3293Z" fill="#D10931"/>
</svg>
