<svg width="14" height="14" viewBox="0 0 14 14" fill="none" xmlns="http://www.w3.org/2000/svg">
<path d="M13.744 0.256009C13.4026 -0.0853364 12.8551 -0.0853364 12.5137 0.256009L7 5.76906L1.48631 0.256009C1.14493 -0.0853364 0.597424 -0.0853364 0.256039 0.256009C-0.0853463 0.597355 -0.0853463 1.1448 0.256039 1.48614L5.76973 6.9992L0.256039 12.5122C-0.0853463 12.8536 -0.0853463 13.401 0.256039 13.7424C0.42351 13.9098 0.648953 14 0.867955 14C1.08696 14 1.3124 13.9163 1.47987 13.7424L6.99356 8.22933L12.5072 13.7424C12.6747 13.9098 12.9002 14 13.1192 14C13.3446 14 13.5636 13.9163 13.7311 13.7424C14.0725 13.401 14.0725 12.8536 13.7311 12.5122L8.23028 6.9992L13.744 1.48614C14.0853 1.1448 14.0853 0.597355 13.744 0.256009Z" fill="black"/>
</svg>
