<svg width="218" height="24" viewBox="0 0 218 24" fill="none" xmlns="http://www.w3.org/2000/svg">
<path d="M31.0816 0.0126121C28.1574 0.00486574 25.3336 1.08165 23.1515 3.03554C24.2373 4.33288 25.0711 5.82305 25.6105 7.42839C26.8706 5.89523 28.7063 4.95358 30.6827 4.82714C32.6588 4.70041 34.5992 5.40007 36.0433 6.76001C37.4872 8.11969 38.3065 10.0188 38.3065 12.0062C38.3065 13.9937 37.4872 15.8927 36.0433 17.2524C34.5992 18.6124 32.6588 19.3121 30.6827 19.1853C28.7063 19.0589 26.8707 18.1172 25.6105 16.584C25.2798 16.1812 24.9955 15.7425 24.7621 15.2762C24.2163 14.2719 23.9211 13.1499 23.9017 12.0062C23.9141 9.41457 23.0759 6.8905 21.5165 4.82468C21.2813 4.48632 21.0183 4.16872 20.7296 3.87463C20.4626 3.57964 20.1792 3.29953 19.8816 3.03554C17.5724 0.979008 14.5602 -0.101137 11.4758 0.0218933C8.3913 0.144924 5.47336 1.46145 3.33388 3.69552C1.19481 5.92926 0 8.90761 0 12.0062C0 15.1048 1.19473 18.0831 3.33388 20.3169C5.47296 22.551 8.39066 23.8676 11.4758 23.9905C14.5608 24.1135 17.5727 23.0334 19.8816 20.9769C18.7958 19.6796 17.962 18.1894 17.4227 16.584C16.1625 18.1172 14.3268 19.0589 12.3504 19.1853C10.3743 19.312 8.43397 18.6124 6.98982 17.2524C5.54591 15.8927 4.72658 13.9937 4.72658 12.0062C4.72658 10.0188 5.54591 8.11969 6.98982 6.76001C8.43397 5.40001 10.3743 4.70038 12.3504 4.82714C14.3268 4.95357 16.1624 5.89523 17.4227 7.42839C17.7533 7.8312 18.0376 8.26993 18.271 8.73627C18.8168 9.74051 19.112 10.8625 19.1314 12.0062C19.1191 14.5979 19.9572 17.1219 21.5166 19.1878C21.7519 19.5261 22.0149 19.8437 22.3035 20.1378C22.574 20.4216 22.8567 20.7179 23.1519 20.9769H23.1515C26.0915 23.5874 30.1214 24.5821 33.9323 23.6383C37.7434 22.6945 40.8494 19.932 42.2417 16.2485C43.634 12.5649 43.1355 8.42993 40.9074 5.18608C38.6794 1.94247 35.0063 0.0037282 31.0806 0L31.0816 0.0126121Z" fill="#C60024"/>
<path d="M54.4283 18V15.7756L54.799 15.7436C55.2763 15.7053 55.6619 15.5241 55.956 15.2003C56.25 14.8722 56.4695 14.3501 56.6143 13.6342C56.7635 12.9141 56.8594 11.9467 56.902 10.7322L57.1193 4.90909H66.0043V18H63.3132V7.12713H59.6889L59.4844 11.6847C59.4162 13.1506 59.2415 14.348 58.9602 15.277C58.6832 16.206 58.2401 16.892 57.6307 17.3352C57.0256 17.7784 56.1967 18 55.1442 18H54.4283ZM72.6712 18.1918C71.6783 18.1918 70.8196 17.9808 70.0952 17.5589C69.375 17.1328 68.8189 16.5405 68.4268 15.782C68.0348 15.0192 67.8388 14.1349 67.8388 13.1293C67.8388 12.1151 68.0348 11.2287 68.4268 10.4702C68.8189 9.70739 69.375 9.11506 70.0952 8.69318C70.8196 8.26705 71.6783 8.05398 72.6712 8.05398C73.6641 8.05398 74.5206 8.26705 75.2408 8.69318C75.9652 9.11506 76.5234 9.70739 76.9155 10.4702C77.3075 11.2287 77.5036 12.1151 77.5036 13.1293C77.5036 14.1349 77.3075 15.0192 76.9155 15.782C76.5234 16.5405 75.9652 17.1328 75.2408 17.5589C74.5206 17.9808 73.6641 18.1918 72.6712 18.1918ZM72.6839 16.0824C73.1357 16.0824 73.5128 15.9545 73.8153 15.6989C74.1179 15.4389 74.3459 15.0852 74.4993 14.6378C74.657 14.1903 74.7358 13.6811 74.7358 13.1101C74.7358 12.5391 74.657 12.0298 74.4993 11.5824C74.3459 11.1349 74.1179 10.7812 73.8153 10.5213C73.5128 10.2614 73.1357 10.1314 72.6839 10.1314C72.228 10.1314 71.8445 10.2614 71.5334 10.5213C71.2266 10.7812 70.9943 11.1349 70.8366 11.5824C70.6832 12.0298 70.6065 12.5391 70.6065 13.1101C70.6065 13.6811 70.6832 14.1903 70.8366 14.6378C70.9943 15.0852 71.2266 15.4389 71.5334 15.6989C71.8445 15.9545 72.228 16.0824 72.6839 16.0824ZM85.0781 14.9893L87.7372 8.18182H89.8082L85.9794 18H84.1705L80.4311 8.18182H82.4957L85.0781 14.9893ZM81.8757 8.18182V18H79.2741V8.18182H81.8757ZM88.4148 18V8.18182H90.9844V18H88.4148ZM101.253 4.5767L102.084 6.35369C101.807 6.58381 101.5 6.75426 101.164 6.86506C100.827 6.97159 100.424 7.0419 99.9556 7.07599C99.4911 7.11008 98.9244 7.13352 98.2553 7.14631C97.4968 7.15483 96.8789 7.27628 96.4016 7.51065C95.9244 7.74503 95.5621 8.11364 95.315 8.61648C95.0678 9.11506 94.9059 9.76705 94.8292 10.5724H94.9251C95.2191 9.97159 95.6325 9.5071 96.1651 9.17898C96.7021 8.85085 97.3647 8.68679 98.1531 8.68679C98.9883 8.68679 99.7191 8.87003 100.346 9.23651C100.976 9.60298 101.466 10.1293 101.816 10.8153C102.165 11.5014 102.34 12.3239 102.34 13.2827C102.34 14.2798 102.144 15.147 101.752 15.8842C101.364 16.6172 100.812 17.1861 100.096 17.5909C99.3803 17.9915 98.5281 18.1918 97.5394 18.1918C96.5465 18.1918 95.69 17.983 94.9698 17.5653C94.2539 17.1477 93.6999 16.532 93.3079 15.718C92.9201 14.9041 92.7262 13.9027 92.7262 12.7138V11.9084C92.7262 9.54332 93.1864 7.78977 94.1069 6.64773C95.0273 5.50568 96.3803 4.92614 98.1658 4.90909C98.6516 4.90057 99.0906 4.89844 99.4826 4.9027C99.8746 4.90696 100.218 4.88778 100.512 4.84517C100.81 4.80256 101.057 4.71307 101.253 4.5767ZM97.5522 16.0824C97.9698 16.0824 98.3278 15.9737 98.6261 15.7564C98.9286 15.5391 99.1609 15.228 99.3228 14.8232C99.489 14.4183 99.5721 13.9347 99.5721 13.3722C99.5721 12.8139 99.489 12.3409 99.3228 11.9531C99.1609 11.5611 98.9286 11.2628 98.6261 11.0582C98.3235 10.8537 97.9613 10.7514 97.5394 10.7514C97.2241 10.7514 96.9407 10.8089 96.6893 10.924C96.4379 11.0391 96.2227 11.2095 96.0437 11.4354C95.869 11.657 95.7326 11.9318 95.6346 12.2599C95.5408 12.5838 95.494 12.9545 95.494 13.3722C95.494 14.2116 95.6751 14.8743 96.0373 15.3601C96.4038 15.8416 96.9087 16.0824 97.5522 16.0824ZM106.947 18.1854C106.32 18.1854 105.762 18.0767 105.272 17.8594C104.782 17.6378 104.394 17.3118 104.109 16.8814C103.828 16.4467 103.687 15.9055 103.687 15.2578C103.687 14.7124 103.787 14.2543 103.987 13.8835C104.188 13.5128 104.46 13.2145 104.806 12.9886C105.151 12.7628 105.543 12.5923 105.982 12.4773C106.425 12.3622 106.889 12.2812 107.375 12.2344C107.946 12.1747 108.406 12.1193 108.756 12.0682C109.105 12.0128 109.359 11.9318 109.517 11.8253C109.674 11.7187 109.753 11.5611 109.753 11.3523V11.3139C109.753 10.9091 109.625 10.5959 109.369 10.3743C109.118 10.1527 108.76 10.0419 108.296 10.0419C107.806 10.0419 107.416 10.1506 107.126 10.3679C106.836 10.581 106.644 10.8494 106.551 11.1733L104.032 10.9688C104.16 10.3722 104.411 9.85653 104.786 9.42188C105.161 8.98295 105.645 8.64631 106.237 8.41193C106.834 8.1733 107.524 8.05398 108.308 8.05398C108.854 8.05398 109.376 8.1179 109.874 8.24574C110.377 8.37358 110.823 8.57173 111.21 8.8402C111.602 9.10866 111.911 9.45384 112.137 9.87571C112.363 10.2933 112.476 10.794 112.476 11.3778V18H109.894V16.6385H109.817C109.659 16.9453 109.448 17.2159 109.184 17.4503C108.92 17.6804 108.602 17.8615 108.232 17.9936C107.861 18.1214 107.433 18.1854 106.947 18.1854ZM107.727 16.3061C108.127 16.3061 108.481 16.2273 108.788 16.0696C109.095 15.9077 109.335 15.6903 109.51 15.4176C109.685 15.1449 109.772 14.8359 109.772 14.4908V13.4489C109.687 13.5043 109.57 13.5554 109.421 13.6023C109.276 13.6449 109.112 13.6854 108.928 13.7237C108.745 13.7578 108.562 13.7898 108.379 13.8196C108.195 13.8452 108.029 13.8686 107.88 13.8899C107.561 13.9368 107.281 14.0114 107.043 14.1136C106.804 14.2159 106.619 14.3544 106.487 14.5291C106.355 14.6996 106.289 14.9126 106.289 15.1683C106.289 15.5391 106.423 15.8224 106.691 16.0185C106.964 16.2102 107.309 16.3061 107.727 16.3061ZM114.589 21.6818V8.18182H117.273V9.83097H117.395C117.514 9.56676 117.687 9.2983 117.912 9.02557C118.143 8.74858 118.441 8.51847 118.807 8.33523C119.178 8.14773 119.638 8.05398 120.188 8.05398C120.904 8.05398 121.564 8.24148 122.17 8.61648C122.775 8.98722 123.258 9.54759 123.621 10.2976C123.983 11.0433 124.164 11.9787 124.164 13.1037C124.164 14.1989 123.987 15.1236 123.633 15.8778C123.284 16.6278 122.807 17.1967 122.202 17.5845C121.601 17.968 120.927 18.1598 120.182 18.1598C119.653 18.1598 119.204 18.0724 118.833 17.8977C118.466 17.723 118.166 17.5036 117.932 17.2393C117.697 16.9709 117.518 16.7003 117.395 16.4276H117.312V21.6818H114.589ZM117.254 13.0909C117.254 13.6747 117.335 14.1839 117.497 14.6186C117.659 15.0533 117.893 15.392 118.2 15.6349C118.507 15.8736 118.88 15.9929 119.319 15.9929C119.762 15.9929 120.137 15.8714 120.444 15.6286C120.751 15.3814 120.983 15.0405 121.14 14.6058C121.302 14.1669 121.383 13.6619 121.383 13.0909C121.383 12.5241 121.305 12.0256 121.147 11.5952C120.989 11.1648 120.757 10.8281 120.45 10.5852C120.143 10.3423 119.766 10.2209 119.319 10.2209C118.876 10.2209 118.501 10.3381 118.194 10.5724C117.891 10.8068 117.659 11.1392 117.497 11.5696C117.335 12 117.254 12.5071 117.254 13.0909ZM125.212 20.8764V15.8395H125.966C126.184 15.7031 126.358 15.4858 126.491 15.1875C126.627 14.8892 126.738 14.5376 126.823 14.1328C126.912 13.728 126.981 13.2912 127.028 12.8224C127.079 12.3494 127.123 11.8722 127.162 11.3906L127.417 8.18182H134.947V15.8395H136.469V20.8764H133.873V18H127.871V20.8764H125.212ZM128.677 15.8395H132.378V10.2784H129.731L129.629 11.3906C129.557 12.4389 129.452 13.3295 129.316 14.0625C129.18 14.7912 128.966 15.3835 128.677 15.8395ZM154.302 11.4545C154.302 12.8821 154.032 14.0966 153.491 15.098C152.954 16.0994 152.221 16.8643 151.292 17.3928C150.367 17.9169 149.327 18.179 148.172 18.179C147.009 18.179 145.965 17.9148 145.04 17.3864C144.116 16.858 143.385 16.093 142.848 15.0916C142.311 14.0902 142.042 12.8778 142.042 11.4545C142.042 10.027 142.311 8.8125 142.848 7.81108C143.385 6.80966 144.116 6.04687 145.04 5.52273C145.965 4.99432 147.009 4.73011 148.172 4.73011C149.327 4.73011 150.367 4.99432 151.292 5.52273C152.221 6.04687 152.954 6.80966 153.491 7.81108C154.032 8.8125 154.302 10.027 154.302 11.4545ZM151.496 11.4545C151.496 10.5298 151.358 9.75 151.081 9.11506C150.808 8.48011 150.422 7.99858 149.924 7.67045C149.425 7.34233 148.841 7.17827 148.172 7.17827C147.503 7.17827 146.92 7.34233 146.421 7.67045C145.922 7.99858 145.535 8.48011 145.258 9.11506C144.985 9.75 144.849 10.5298 144.849 11.4545C144.849 12.3793 144.985 13.1591 145.258 13.794C145.535 14.429 145.922 14.9105 146.421 15.2386C146.92 15.5668 147.503 15.7308 148.172 15.7308C148.841 15.7308 149.425 15.5668 149.924 15.2386C150.422 14.9105 150.808 14.429 151.081 13.794C151.358 13.1591 151.496 12.3793 151.496 11.4545ZM163.135 12.0043V14.1456H158.008V12.0043H163.135ZM158.903 8.18182V18H156.301V8.18182H158.903ZM164.841 8.18182V18H162.259V8.18182H164.841ZM166.379 18L166.366 15.8395H166.692C166.922 15.8395 167.12 15.7841 167.286 15.6733C167.457 15.5582 167.597 15.3729 167.708 15.1172C167.819 14.8615 167.906 14.5227 167.97 14.1009C168.034 13.6747 168.077 13.1506 168.098 12.5284L168.258 8.18182H175.724V18H173.129V10.3232H170.706L170.553 13.321C170.514 14.1435 170.414 14.8509 170.252 15.4432C170.094 16.0355 169.875 16.5213 169.594 16.9006C169.312 17.2756 168.974 17.5526 168.577 17.7315C168.181 17.9105 167.721 18 167.197 18H166.379ZM180.634 18.1854C180.008 18.1854 179.45 18.0767 178.96 17.8594C178.47 17.6378 178.082 17.3118 177.796 16.8814C177.515 16.4467 177.374 15.9055 177.374 15.2578C177.374 14.7124 177.475 14.2543 177.675 13.8835C177.875 13.5128 178.148 13.2145 178.493 12.9886C178.838 12.7628 179.23 12.5923 179.669 12.4773C180.112 12.3622 180.577 12.2812 181.063 12.2344C181.634 12.1747 182.094 12.1193 182.443 12.0682C182.793 12.0128 183.046 11.9318 183.204 11.8253C183.362 11.7187 183.441 11.5611 183.441 11.3523V11.3139C183.441 10.9091 183.313 10.5959 183.057 10.3743C182.806 10.1527 182.448 10.0419 181.983 10.0419C181.493 10.0419 181.103 10.1506 180.813 10.3679C180.524 10.581 180.332 10.8494 180.238 11.1733L177.72 10.9688C177.847 10.3722 178.099 9.85653 178.474 9.42188C178.849 8.98295 179.333 8.64631 179.925 8.41193C180.521 8.1733 181.212 8.05398 181.996 8.05398C182.541 8.05398 183.063 8.1179 183.562 8.24574C184.065 8.37358 184.51 8.57173 184.898 8.8402C185.29 9.10866 185.599 9.45384 185.825 9.87571C186.051 10.2933 186.164 10.794 186.164 11.3778V18H183.581V16.6385H183.504C183.347 16.9453 183.136 17.2159 182.872 17.4503C182.607 17.6804 182.29 17.8615 181.919 17.9936C181.548 18.1214 181.12 18.1854 180.634 18.1854ZM181.414 16.3061C181.815 16.3061 182.169 16.2273 182.475 16.0696C182.782 15.9077 183.023 15.6903 183.198 15.4176C183.372 15.1449 183.46 14.8359 183.46 14.4908V13.4489C183.374 13.5043 183.257 13.5554 183.108 13.6023C182.963 13.6449 182.799 13.6854 182.616 13.7237C182.433 13.7578 182.249 13.7898 182.066 13.8196C181.883 13.8452 181.717 13.8686 181.568 13.8899C181.248 13.9368 180.969 14.0114 180.73 14.1136C180.492 14.2159 180.306 14.3544 180.174 14.5291C180.042 14.6996 179.976 14.9126 179.976 15.1683C179.976 15.5391 180.11 15.8224 180.379 16.0185C180.651 16.2102 180.997 16.3061 181.414 16.3061ZM190.878 14.4077L194.412 8.18182H197.097V18H194.502V11.755L190.98 18H188.276V8.18182H190.878V14.4077ZM193.946 4.75568H195.844C195.84 5.53125 195.552 6.15554 194.981 6.62855C194.415 7.10156 193.648 7.33807 192.68 7.33807C191.709 7.33807 190.939 7.10156 190.373 6.62855C189.806 6.15554 189.523 5.53125 189.523 4.75568H191.408C191.404 5.04972 191.498 5.31392 191.689 5.5483C191.885 5.78267 192.216 5.89986 192.68 5.89986C193.132 5.89986 193.456 5.7848 193.652 5.55469C193.848 5.32457 193.946 5.05824 193.946 4.75568ZM206.113 12.0043V14.1456H200.987V12.0043H206.113ZM201.882 8.18182V18H199.28V8.18182H201.882ZM207.82 8.18182V18H205.237V8.18182H207.82Z" fill="black"/>
</svg>
