<svg width="129" height="24" viewBox="0 0 129 24" fill="none" xmlns="http://www.w3.org/2000/svg">
<path d="M31.0816 0.0126121C28.1574 0.00486574 25.3336 1.08165 23.1515 3.03554C24.2373 4.33288 25.0711 5.82305 25.6105 7.42839C26.8706 5.89523 28.7063 4.95358 30.6827 4.82714C32.6588 4.70041 34.5992 5.40007 36.0433 6.76001C37.4872 8.11969 38.3065 10.0188 38.3065 12.0062C38.3065 13.9937 37.4872 15.8927 36.0433 17.2524C34.5992 18.6124 32.6588 19.3121 30.6827 19.1853C28.7063 19.0589 26.8707 18.1172 25.6105 16.584C25.2798 16.1812 24.9955 15.7425 24.7621 15.2762C24.2163 14.2719 23.9212 13.1499 23.9017 12.0062C23.9141 9.41457 23.0759 6.8905 21.5165 4.82468C21.2813 4.48632 21.0183 4.16872 20.7296 3.87463C20.4626 3.57964 20.1792 3.29953 19.8816 3.03554C17.5724 0.979008 14.5602 -0.101137 11.4758 0.0218933C8.3913 0.144924 5.47336 1.46145 3.33388 3.69552C1.19481 5.92926 0 8.90761 0 12.0062C0 15.1048 1.19473 18.0831 3.33388 20.3169C5.47296 22.551 8.39066 23.8676 11.4758 23.9905C14.5608 24.1135 17.5727 23.0334 19.8816 20.9769C18.7958 19.6796 17.962 18.1894 17.4227 16.584C16.1625 18.1172 14.3268 19.0589 12.3504 19.1853C10.3743 19.312 8.43397 18.6124 6.98982 17.2524C5.54591 15.8927 4.72658 13.9937 4.72658 12.0062C4.72658 10.0188 5.54591 8.11969 6.98982 6.76001C8.43397 5.40001 10.3743 4.70038 12.3504 4.82714C14.3268 4.95357 16.1624 5.89523 17.4227 7.42839C17.7533 7.8312 18.0376 8.26993 18.271 8.73627C18.8168 9.74051 19.112 10.8625 19.1314 12.0062C19.1191 14.5979 19.9572 17.1219 21.5166 19.1878C21.7519 19.5261 22.0149 19.8437 22.3035 20.1378C22.574 20.4216 22.8567 20.7179 23.1519 20.9769H23.1515C26.0915 23.5874 30.1214 24.5821 33.9323 23.6383C37.7434 22.6945 40.8494 19.932 42.2417 16.2485C43.634 12.5649 43.1355 8.42993 40.9074 5.18608C38.6794 1.94247 35.0063 0.0037282 31.0806 0L31.0816 0.0126121Z" fill="#C60024"/>
<path d="M46.4283 18V15.7756L46.799 15.7436C47.2763 15.7053 47.6619 15.5241 47.956 15.2003C48.25 14.8722 48.4695 14.3501 48.6143 13.6342C48.7635 12.9141 48.8594 11.9467 48.902 10.7322L49.1193 4.90909H58.0043V18H55.3132V7.12713H51.6889L51.4844 11.6847C51.4162 13.1506 51.2415 14.348 50.9602 15.277C50.6832 16.206 50.2401 16.892 49.6307 17.3352C49.0256 17.7784 48.1967 18 47.1442 18H46.4283ZM64.6712 18.1918C63.6783 18.1918 62.8196 17.9808 62.0952 17.5589C61.375 17.1328 60.8189 16.5405 60.4268 15.782C60.0348 15.0192 59.8388 14.1349 59.8388 13.1293C59.8388 12.1151 60.0348 11.2287 60.4268 10.4702C60.8189 9.70739 61.375 9.11506 62.0952 8.69318C62.8196 8.26705 63.6783 8.05398 64.6712 8.05398C65.6641 8.05398 66.5206 8.26705 67.2408 8.69318C67.9652 9.11506 68.5234 9.70739 68.9155 10.4702C69.3075 11.2287 69.5036 12.1151 69.5036 13.1293C69.5036 14.1349 69.3075 15.0192 68.9155 15.782C68.5234 16.5405 67.9652 17.1328 67.2408 17.5589C66.5206 17.9808 65.6641 18.1918 64.6712 18.1918ZM64.6839 16.0824C65.1357 16.0824 65.5128 15.9545 65.8153 15.6989C66.1179 15.4389 66.3459 15.0852 66.4993 14.6378C66.657 14.1903 66.7358 13.6811 66.7358 13.1101C66.7358 12.5391 66.657 12.0298 66.4993 11.5824C66.3459 11.1349 66.1179 10.7812 65.8153 10.5213C65.5128 10.2614 65.1357 10.1314 64.6839 10.1314C64.228 10.1314 63.8445 10.2614 63.5334 10.5213C63.2266 10.7812 62.9943 11.1349 62.8366 11.5824C62.6832 12.0298 62.6065 12.5391 62.6065 13.1101C62.6065 13.6811 62.6832 14.1903 62.8366 14.6378C62.9943 15.0852 63.2266 15.4389 63.5334 15.6989C63.8445 15.9545 64.228 16.0824 64.6839 16.0824ZM77.0781 14.9893L79.7372 8.18182H81.8082L77.9794 18H76.1705L72.4311 8.18182H74.4957L77.0781 14.9893ZM73.8757 8.18182V18H71.2741V8.18182H73.8757ZM80.4148 18V8.18182H82.9844V18H80.4148ZM93.2532 4.5767L94.0842 6.35369C93.8072 6.58381 93.5004 6.75426 93.1637 6.86506C92.8271 6.97159 92.4244 7.0419 91.9556 7.07599C91.4911 7.11008 90.9244 7.13352 90.2553 7.14631C89.4968 7.15483 88.8789 7.27628 88.4016 7.51065C87.9244 7.74503 87.5621 8.11364 87.315 8.61648C87.0678 9.11506 86.9059 9.76705 86.8292 10.5724H86.9251C87.2191 9.97159 87.6325 9.5071 88.1651 9.17898C88.7021 8.85085 89.3647 8.68679 90.1531 8.68679C90.9883 8.68679 91.7191 8.87003 92.3455 9.23651C92.9762 9.60298 93.4663 10.1293 93.8157 10.8153C94.1651 11.5014 94.3398 12.3239 94.3398 13.2827C94.3398 14.2798 94.1438 15.147 93.7518 15.8842C93.364 16.6172 92.8121 17.1861 92.0962 17.5909C91.3803 17.9915 90.5281 18.1918 89.5394 18.1918C88.5465 18.1918 87.69 17.983 86.9698 17.5653C86.2539 17.1477 85.6999 16.532 85.3079 15.718C84.9201 14.9041 84.7262 13.9027 84.7262 12.7138V11.9084C84.7262 9.54332 85.1864 7.78977 86.1069 6.64773C87.0273 5.50568 88.3803 4.92614 90.1658 4.90909C90.6516 4.90057 91.0906 4.89844 91.4826 4.9027C91.8746 4.90696 92.2177 4.88778 92.5117 4.84517C92.81 4.80256 93.0572 4.71307 93.2532 4.5767ZM89.5522 16.0824C89.9698 16.0824 90.3278 15.9737 90.6261 15.7564C90.9286 15.5391 91.1609 15.228 91.3228 14.8232C91.489 14.4183 91.5721 13.9347 91.5721 13.3722C91.5721 12.8139 91.489 12.3409 91.3228 11.9531C91.1609 11.5611 90.9286 11.2628 90.6261 11.0582C90.3235 10.8537 89.9613 10.7514 89.5394 10.7514C89.2241 10.7514 88.9407 10.8089 88.6893 10.924C88.4379 11.0391 88.2227 11.2095 88.0437 11.4354C87.869 11.657 87.7326 11.9318 87.6346 12.2599C87.5408 12.5838 87.494 12.9545 87.494 13.3722C87.494 14.2116 87.6751 14.8743 88.0373 15.3601C88.4038 15.8416 88.9087 16.0824 89.5522 16.0824ZM98.9469 18.1854C98.3205 18.1854 97.7623 18.0767 97.2722 17.8594C96.7821 17.6378 96.3944 17.3118 96.1088 16.8814C95.8276 16.4467 95.687 15.9055 95.687 15.2578C95.687 14.7124 95.7871 14.2543 95.9874 13.8835C96.1877 13.5128 96.4604 13.2145 96.8056 12.9886C97.1507 12.7628 97.5428 12.5923 97.9817 12.4773C98.4249 12.3622 98.8894 12.2812 99.3752 12.2344C99.9462 12.1747 100.406 12.1193 100.756 12.0682C101.105 12.0128 101.359 11.9318 101.517 11.8253C101.674 11.7187 101.753 11.5611 101.753 11.3523V11.3139C101.753 10.9091 101.625 10.5959 101.369 10.3743C101.118 10.1527 100.76 10.0419 100.296 10.0419C99.8056 10.0419 99.4157 10.1506 99.1259 10.3679C98.8361 10.581 98.6444 10.8494 98.5506 11.1733L96.0321 10.9688C96.16 10.3722 96.4114 9.85653 96.7864 9.42188C97.1614 8.98295 97.6451 8.64631 98.2374 8.41193C98.834 8.1733 99.5243 8.05398 100.308 8.05398C100.854 8.05398 101.376 8.1179 101.874 8.24574C102.377 8.37358 102.823 8.57173 103.21 8.8402C103.602 9.10866 103.911 9.45384 104.137 9.87571C104.363 10.2933 104.476 10.794 104.476 11.3778V18H101.894V16.6385H101.817C101.659 16.9453 101.448 17.2159 101.184 17.4503C100.92 17.6804 100.602 17.8615 100.232 17.9936C99.861 18.1214 99.4327 18.1854 98.9469 18.1854ZM99.7267 16.3061C100.127 16.3061 100.481 16.2273 100.788 16.0696C101.095 15.9077 101.335 15.6903 101.51 15.4176C101.685 15.1449 101.772 14.8359 101.772 14.4908V13.4489C101.687 13.5043 101.57 13.5554 101.421 13.6023C101.276 13.6449 101.112 13.6854 100.928 13.7237C100.745 13.7578 100.562 13.7898 100.379 13.8196C100.195 13.8452 100.029 13.8686 99.8801 13.8899C99.5605 13.9368 99.2814 14.0114 99.0428 14.1136C98.8042 14.2159 98.6188 14.3544 98.4867 14.5291C98.3546 14.6996 98.2885 14.9126 98.2885 15.1683C98.2885 15.5391 98.4228 15.8224 98.6912 16.0185C98.964 16.2102 99.3091 16.3061 99.7267 16.3061ZM106.589 21.6818V8.18182H109.273V9.83097H109.395C109.514 9.56676 109.687 9.2983 109.912 9.02557C110.143 8.74858 110.441 8.51847 110.807 8.33523C111.178 8.14773 111.638 8.05398 112.188 8.05398C112.904 8.05398 113.564 8.24148 114.17 8.61648C114.775 8.98722 115.258 9.54759 115.621 10.2976C115.983 11.0433 116.164 11.9787 116.164 13.1037C116.164 14.1989 115.987 15.1236 115.633 15.8778C115.284 16.6278 114.807 17.1967 114.202 17.5845C113.601 17.968 112.927 18.1598 112.182 18.1598C111.653 18.1598 111.204 18.0724 110.833 17.8977C110.466 17.723 110.166 17.5036 109.932 17.2393C109.697 16.9709 109.518 16.7003 109.395 16.4276H109.312V21.6818H106.589ZM109.254 13.0909C109.254 13.6747 109.335 14.1839 109.497 14.6186C109.659 15.0533 109.893 15.392 110.2 15.6349C110.507 15.8736 110.88 15.9929 111.319 15.9929C111.762 15.9929 112.137 15.8714 112.444 15.6286C112.751 15.3814 112.983 15.0405 113.14 14.6058C113.302 14.1669 113.383 13.6619 113.383 13.0909C113.383 12.5241 113.305 12.0256 113.147 11.5952C112.989 11.1648 112.757 10.8281 112.45 10.5852C112.143 10.3423 111.766 10.2209 111.319 10.2209C110.876 10.2209 110.501 10.3381 110.194 10.5724C109.891 10.8068 109.659 11.1392 109.497 11.5696C109.335 12 109.254 12.5071 109.254 13.0909ZM117.212 20.8764V15.8395H117.966C118.184 15.7031 118.358 15.4858 118.491 15.1875C118.627 14.8892 118.738 14.5376 118.823 14.1328C118.912 13.728 118.981 13.2912 119.028 12.8224C119.079 12.3494 119.123 11.8722 119.162 11.3906L119.417 8.18182H126.947V15.8395H128.469V20.8764H125.873V18H119.871V20.8764H117.212ZM120.677 15.8395H124.378V10.2784H121.731L121.629 11.3906C121.557 12.4389 121.452 13.3295 121.316 14.0625C121.18 14.7912 120.966 15.3835 120.677 15.8395Z" fill="black"/>
</svg>
