<svg width="525" height="430" viewBox="0 0 525 430" fill="none" xmlns="http://www.w3.org/2000/svg">
<path d="M249.815 -2.32298C211.021 18.0435 181.849 50.8477 167.884 89.7887C192.185 97.9102 214.624 110.13 234.042 125.807C239.013 98.4142 256.129 74.1612 281.343 58.8003C306.55 43.4381 337.602 38.3389 367.13 44.7112C396.652 51.082 422.025 68.3583 437.221 92.4381C452.417 116.518 456.084 145.26 447.353 171.836C438.621 198.419 418.269 220.472 391.123 232.762C363.976 245.06 332.461 246.494 304.045 236.736C296.585 234.169 289.465 230.843 282.808 226.826C267.9 218.478 255.411 206.948 246.409 193.228C226.757 161.741 196.356 137.024 159.905 122.906C154.202 120.452 148.289 118.445 142.217 116.901C136.424 115.195 130.529 113.785 124.569 112.668C78.2556 103.909 30.097 111.898 -9.82028 134.97C-49.7376 158.043 -78.3237 194.41 -89.5828 236.448C-100.839 278.478 -93.8939 322.924 -70.2024 360.466C-46.511 398.009 -7.91381 425.734 37.5017 437.831C82.9181 449.932 131.634 445.469 173.44 425.372C215.246 405.276 246.884 371.116 261.745 330.044C237.444 321.923 215.005 309.702 195.586 294.026C190.616 321.419 173.5 345.672 148.286 361.032C123.078 376.395 92.0268 381.494 62.4991 375.122C32.9765 368.751 7.60341 351.474 -7.59227 327.395C-22.788 303.315 -26.4549 274.573 -17.7242 247.996C-8.99269 221.414 11.3602 199.361 38.5057 187.07C65.6529 174.773 97.1677 173.339 125.584 183.097C133.043 185.663 140.164 188.99 146.821 193.007C161.729 201.355 174.218 212.884 183.22 226.605C202.872 258.092 233.273 282.809 269.724 296.927C275.427 299.381 281.339 301.388 287.412 302.932C293.164 304.478 299.175 306.089 305.064 307.162L305.06 307.164C363.963 318.223 424.951 302.076 468.215 263.977C511.483 225.876 531.504 170.674 521.784 116.303C512.062 61.931 473.843 15.3203 419.527 -8.39224C365.215 -32.1024 301.735 -29.8911 249.706 -2.46865L249.815 -2.32298Z" fill="white" fill-opacity="0.12"/>
</svg>
