<svg width="39" height="30" viewBox="0 0 39 30" fill="none" xmlns="http://www.w3.org/2000/svg">
<path d="M37.7743 19.3041V18.8418H37.6557L37.5193 19.1593L37.3829 18.8418H37.2643V19.3041H37.3479V18.9554L37.4757 19.2563H37.5628L37.6907 18.9547V19.3041H37.7743ZM37.0236 19.3041V18.9206H37.1757V18.8426H36.7886V18.9206H36.9407V19.3041H37.0236Z" fill="#0099DF"/>
<path d="M24.3262 21.2929H14.0898V2.55029H24.3262V21.2929Z" fill="#6C6BBD"/>
<path d="M14.7451 11.9204C14.7451 8.11837 16.493 4.73161 19.2137 2.54905C17.2237 0.953054 14.713 0.000488281 11.9837 0.000488281C5.52302 0.000488281 0.285889 5.3371 0.285889 11.9204C0.285889 18.5037 5.52302 23.8403 11.9837 23.8403C14.713 23.8403 17.2237 22.8877 19.2137 21.2917C16.493 19.1092 14.7451 15.7225 14.7451 11.9204Z" fill="#EB001B"/>
<path d="M38.1318 11.9199C38.1318 18.5032 32.8947 23.8398 26.4333 23.8398C23.7047 23.8398 21.1933 22.8872 19.2033 21.2912C21.9247 19.1087 23.6719 15.722 23.6719 11.9199C23.6719 8.11789 21.9247 4.73112 19.2033 2.54856C21.1933 0.952566 23.7047 0 26.4333 0C32.8947 0 38.1318 5.33661 38.1318 11.9199Z" fill="#0099DF"/>
<path d="M27.7775 26.5856C27.9139 26.5856 28.1089 26.6122 28.2589 26.6721L28.0504 27.3208C27.9075 27.2609 27.7646 27.2412 27.6282 27.2412C27.1861 27.2412 26.9654 27.5322 26.9654 28.0551V29.8299H26.2889V26.6652H26.9582V27.0494C27.1339 26.7714 27.3875 26.5856 27.7775 26.5856ZM25.2797 27.2942H24.1754V28.7243C24.1754 29.0418 24.2854 29.254 24.6239 29.254C24.7989 29.254 25.0204 29.1941 25.2211 29.0751L25.4161 29.664C25.2018 29.8163 24.8639 29.9095 24.5718 29.9095C23.7718 29.9095 23.4932 29.4723 23.4932 28.7371V27.2942H22.8625V26.6652H23.4932V25.7051H24.1754V26.6652H25.2797V27.2942ZM16.6297 27.9695C16.7018 27.5125 16.974 27.201 17.4554 27.201C17.8904 27.201 18.1704 27.4791 18.2418 27.9695H16.6297ZM18.944 28.2476C18.9375 27.2609 18.339 26.5856 17.4683 26.5856C16.5583 26.5856 15.9218 27.2609 15.9218 28.2476C15.9218 29.2532 16.5847 29.9088 17.514 29.9088C17.9818 29.9088 18.4104 29.7898 18.7875 29.4654L18.4561 28.9554C18.1961 29.1676 17.8647 29.2866 17.5533 29.2866C17.1175 29.2866 16.7211 29.0812 16.624 28.5121H18.9304C18.9375 28.4257 18.944 28.3401 18.944 28.2476ZM21.9132 27.4731C21.7247 27.3534 21.3418 27.201 20.9454 27.201C20.5754 27.201 20.354 27.3405 20.354 27.5724C20.354 27.7838 20.5875 27.8436 20.8804 27.8831L21.1982 27.9293C21.8747 28.0294 22.284 28.3203 22.284 28.8766C22.284 29.4791 21.764 29.9095 20.8675 29.9095C20.3604 29.9095 19.8925 29.7769 19.5218 29.4988L19.8404 28.9622C20.0675 29.1411 20.4061 29.2934 20.8739 29.2934C21.3354 29.2934 21.5825 29.1547 21.5825 28.9092C21.5825 28.7311 21.4068 28.6311 21.0361 28.5788L20.7175 28.5326C20.0225 28.4325 19.6454 28.115 19.6454 27.5989C19.6454 26.9699 20.1525 26.5856 20.939 26.5856C21.4325 26.5856 21.8811 26.6986 22.2054 26.9169L21.9132 27.4731ZM30.2475 27.2396C30.1089 27.2396 29.9796 27.2647 29.8603 27.3139C29.7411 27.3639 29.6375 27.4337 29.5511 27.5231C29.4639 27.6125 29.3953 27.7201 29.3453 27.8452C29.2953 27.9702 29.2711 28.1081 29.2711 28.2582C29.2711 28.409 29.2953 28.5462 29.3453 28.6712C29.3953 28.7963 29.4639 28.9038 29.5511 28.9933C29.6375 29.0827 29.7411 29.1524 29.8603 29.2025C29.9796 29.2525 30.1089 29.2767 30.2475 29.2767C30.3868 29.2767 30.5161 29.2525 30.6353 29.2025C30.7546 29.1524 30.8589 29.0827 30.946 28.9933C31.0346 28.9038 31.1032 28.7963 31.1539 28.6712C31.2032 28.5462 31.2282 28.409 31.2282 28.2582C31.2282 28.1081 31.2032 27.9702 31.1539 27.8452C31.1032 27.7201 31.0346 27.6125 30.946 27.5231C30.8589 27.4337 30.7546 27.3639 30.6353 27.3139C30.5161 27.2647 30.3868 27.2396 30.2475 27.2396ZM30.2475 26.5856C30.4889 26.5856 30.7118 26.6281 30.9168 26.7137C31.1225 26.7986 31.3003 26.9161 31.4496 27.0654C31.5996 27.2146 31.7168 27.3912 31.8018 27.5944C31.886 27.7982 31.9289 28.0195 31.9289 28.2582C31.9289 28.4969 31.886 28.7182 31.8018 28.9221C31.7168 29.1251 31.5996 29.3025 31.4496 29.4518C31.3003 29.6011 31.1225 29.7178 30.9168 29.8034C30.7118 29.8883 30.4889 29.9307 30.2475 29.9307C30.0068 29.9307 29.7832 29.8883 29.5782 29.8034C29.3732 29.7178 29.1968 29.6011 29.0482 29.4518C28.8989 29.3025 28.7825 29.1251 28.6975 28.9221C28.6125 28.7182 28.5704 28.4969 28.5704 28.2582C28.5704 28.0195 28.6125 27.7982 28.6975 27.5944C28.7825 27.3912 28.8989 27.2146 29.0482 27.0654C29.1968 26.9161 29.3732 26.7986 29.5782 26.7137C29.7832 26.6281 30.0068 26.5856 30.2475 26.5856ZM12.6819 28.2476C12.6819 27.6914 13.0397 27.2344 13.624 27.2344C14.1826 27.2344 14.5597 27.6716 14.5597 28.2476C14.5597 28.8236 14.1826 29.2601 13.624 29.2601C13.0397 29.2601 12.6819 28.8038 12.6819 28.2476ZM15.1968 28.2476V26.6652H14.5211V27.0494C14.3061 26.7645 13.9819 26.5856 13.5397 26.5856C12.669 26.5856 11.9869 27.2806 11.9869 28.2476C11.9869 29.2138 12.669 29.9095 13.5397 29.9095C13.9819 29.9095 14.3061 29.7306 14.5211 29.4457V29.8299H15.1968V28.2476ZM11.389 29.8299V27.8436C11.389 27.0957 10.9212 26.5925 10.1676 26.5856C9.77116 26.5789 9.36117 26.7046 9.07546 27.1487C8.86117 26.7979 8.5233 26.5856 8.04831 26.5856C7.71759 26.5856 7.39261 26.6849 7.13904 27.0555V26.6652H6.46332V29.8299H7.14547V28.0756C7.14547 27.5261 7.44475 27.2344 7.90546 27.2344C8.35403 27.2344 8.58188 27.5322 8.58188 28.0687V29.8299H9.26401V28.0756C9.26401 27.5261 9.57617 27.2344 10.024 27.2344C10.4862 27.2344 10.7069 27.5322 10.7069 28.0687V29.8299H11.389Z" fill="#231F20"/>
<path d="M32.6566 29.5931V29.6712H32.7274C32.7431 29.6712 32.7559 29.6674 32.7652 29.6613C32.7752 29.6552 32.7802 29.6447 32.7802 29.6317C32.7802 29.6189 32.7752 29.609 32.7652 29.6029C32.7559 29.5962 32.7431 29.5931 32.7274 29.5931H32.6566ZM32.7281 29.5385C32.7645 29.5385 32.7931 29.5469 32.8131 29.5636C32.8331 29.5802 32.8424 29.6029 32.8424 29.6317C32.8424 29.656 32.8352 29.6757 32.8188 29.6917C32.8031 29.7068 32.7802 29.7167 32.7509 29.7204L32.8445 29.8303H32.7717L32.6852 29.7212H32.6566V29.8303H32.5959V29.5385H32.7281ZM32.7095 29.9304C32.7431 29.9304 32.7738 29.9243 32.8023 29.9114C32.8316 29.8985 32.8566 29.8811 32.8781 29.8591C32.8995 29.8372 32.9166 29.8114 32.9295 29.7811C32.9416 29.7515 32.948 29.7197 32.948 29.6856C32.948 29.6514 32.9416 29.6197 32.9295 29.5901C32.9166 29.5605 32.8995 29.534 32.8781 29.512C32.8566 29.49 32.8316 29.4726 32.8023 29.4605C32.7738 29.4476 32.7431 29.4415 32.7095 29.4415C32.6759 29.4415 32.6438 29.4476 32.6152 29.4605C32.5852 29.4726 32.5595 29.49 32.5374 29.512C32.5159 29.534 32.4988 29.5605 32.4874 29.5901C32.4745 29.6197 32.4681 29.6514 32.4681 29.6856C32.4681 29.7197 32.4745 29.7515 32.4874 29.7811C32.4988 29.8114 32.5159 29.8372 32.5374 29.8591C32.5595 29.8811 32.5852 29.8985 32.6152 29.9114C32.6438 29.9243 32.6759 29.9304 32.7095 29.9304ZM32.7095 29.3711C32.7531 29.3711 32.7938 29.3794 32.8316 29.3961C32.8702 29.412 32.9031 29.4347 32.9317 29.4635C32.9602 29.4916 32.9824 29.525 32.9988 29.5636C33.0152 29.6015 33.0231 29.6424 33.0231 29.6856C33.0231 29.7288 33.0152 29.7697 32.9988 29.8076C32.9824 29.8454 32.9602 29.8788 32.9317 29.9069C32.9031 29.9357 32.8702 29.9584 32.8316 29.9751C32.7938 29.9917 32.7531 30.0001 32.7095 30.0001C32.6645 30.0001 32.6238 29.9917 32.5852 29.9751C32.5466 29.9584 32.5131 29.9357 32.4845 29.9069C32.4566 29.8788 32.4345 29.8454 32.418 29.8076C32.4016 29.7697 32.3931 29.7288 32.3931 29.6856C32.3931 29.6424 32.4016 29.6015 32.418 29.5636C32.4345 29.525 32.4566 29.4916 32.4845 29.4635C32.5131 29.4347 32.5466 29.412 32.5852 29.3961C32.6238 29.3794 32.6645 29.3711 32.7095 29.3711Z" fill="#231F20"/>
</svg>
