<svg width="39" height="30" viewBox="0 0 39 30" fill="none" xmlns="http://www.w3.org/2000/svg">
<path d="M24.7612 2.62878L14.2071 2.62878L14.2071 21.2991L24.7612 21.2991L24.7612 2.62878Z" fill="#FF5A00"/>
<path d="M14.9098 11.9638C14.9098 8.17055 16.7208 4.80389 19.4998 2.62862C17.4546 1.04522 14.8746 0.0882568 12.0605 0.0882568C5.39392 0.0882568 -0.000213623 5.39959 -0.000213623 11.9638C-0.000213623 18.528 5.39392 23.8394 12.0605 23.8394C14.8746 23.8394 17.4546 22.8824 19.4998 21.299C16.7169 19.1545 14.9098 15.7571 14.9098 11.9638Z" fill="#EB001B"/>
<path d="M38.9998 11.9638C38.9998 18.528 33.6057 23.8394 26.9391 23.8394C24.125 23.8394 21.545 22.8824 19.4997 21.299C22.3139 19.1199 24.0898 15.7571 24.0898 11.9638C24.0898 8.17055 22.2788 4.80389 19.4997 2.62862C21.5411 1.04522 24.121 0.0882568 26.9352 0.0882568C33.6057 0.0882568 38.9998 5.43418 38.9998 11.9638Z" fill="#F79E1B"/>
<path d="M7.06827 29.8463L7.06827 27.8671C7.06827 27.11 6.59989 26.6142 5.79584 26.6142C5.39382 26.6142 4.95667 26.7449 4.65613 27.1753C4.42194 26.814 4.08627 26.6142 3.58277 26.6142C3.2471 26.6142 2.91143 26.7141 2.64602 27.0754L2.64602 26.6795L1.94345 26.6795L1.94345 29.8463L2.64602 29.8463L2.64602 28.0977C2.64602 27.5366 2.94656 27.2714 3.41493 27.2714C3.88331 27.2714 4.1175 27.5673 4.1175 28.0977L4.1175 29.8463L4.82006 29.8463L4.82006 28.0977C4.82006 27.5366 5.15573 27.2714 5.58898 27.2714C6.05735 27.2714 6.29154 27.5673 6.29154 28.0977L6.29154 29.8463L7.06827 29.8463ZM17.4896 26.6795L16.3499 26.6795L16.3499 25.7226L15.6474 25.7226L15.6474 26.6795L15.0111 26.6795L15.0111 27.306L15.6474 27.306L15.6474 28.7587C15.6474 29.4851 15.9479 29.9117 16.7519 29.9117C17.0525 29.9117 17.3881 29.8117 17.6223 29.6811L17.4194 29.0854C17.2164 29.216 16.9822 29.2506 16.8144 29.2506C16.4787 29.2506 16.346 29.0508 16.346 28.7241L16.346 27.306L17.4857 27.306L17.4857 26.6795L17.4896 26.6795ZM23.4536 26.6103C23.0516 26.6103 22.7823 26.8102 22.6144 27.0715L22.6144 26.6757L21.9119 26.6757L21.9119 29.8425L22.6144 29.8425L22.6144 28.0592C22.6144 27.5327 22.8486 27.2329 23.2858 27.2329C23.4185 27.2329 23.5863 27.2675 23.7229 27.2983L23.9259 26.6372C23.7854 26.6103 23.5863 26.6103 23.4536 26.6103ZM14.4413 26.9409C14.1056 26.7103 13.6372 26.6103 13.1337 26.6103C12.3297 26.6103 11.795 27.0062 11.795 27.6326C11.795 28.1592 12.197 28.4589 12.8995 28.555L13.2352 28.5896C13.6021 28.6549 13.8051 28.7549 13.8051 28.9201C13.8051 29.1507 13.5358 29.316 13.0674 29.316C12.599 29.316 12.2282 29.1507 11.994 28.9855L11.6583 29.512C12.0252 29.7772 12.5287 29.9078 13.0323 29.9078C13.969 29.9078 14.5076 29.4774 14.5076 28.8855C14.5076 28.3244 14.0705 28.0285 13.403 27.9286L13.0674 27.894C12.7668 27.8594 12.5327 27.7941 12.5327 27.5981C12.5327 27.3675 12.7668 27.2368 13.1376 27.2368C13.5397 27.2368 13.9417 27.4021 14.1446 27.502L14.4413 26.9409ZM33.1334 26.6103C32.7314 26.6103 32.462 26.8102 32.2942 27.0715L32.2942 26.6757L31.5916 26.6757L31.5916 29.8425L32.2942 29.8425L32.2942 28.0592C32.2942 27.5327 32.5284 27.2329 32.9655 27.2329C33.0983 27.2329 33.2661 27.2675 33.4027 27.2983L33.6057 26.6449C33.4691 26.6103 33.27 26.6103 33.1334 26.6103ZM24.1562 28.2629C24.1562 29.2199 24.8275 29.9117 25.8658 29.9117C26.3341 29.9117 26.6698 29.8117 27.0055 29.5504L26.6698 28.9893C26.4005 29.1891 26.1351 29.2852 25.8306 29.2852C25.2608 29.2852 24.8587 28.8894 24.8587 28.2629C24.8587 27.6672 25.2608 27.2714 25.8306 27.2406C26.1312 27.2406 26.4005 27.3406 26.6698 27.5366L27.0055 26.9755C26.6698 26.7103 26.3341 26.6142 25.8658 26.6142C24.8275 26.6103 24.1562 27.306 24.1562 28.2629ZM30.6549 28.2629L30.6549 26.6795L29.9523 26.6795L29.9523 27.0754C29.7181 26.7794 29.3825 26.6142 28.9453 26.6142C28.0398 26.6142 27.3372 27.306 27.3372 28.2629C27.3372 29.2199 28.0398 29.9117 28.9453 29.9117C29.4137 29.9117 29.7494 29.7464 29.9523 29.4505L29.9523 29.8463L30.6549 29.8463L30.6549 28.2629ZM28.0749 28.2629C28.0749 27.7018 28.4418 27.2406 29.0468 27.2406C29.6167 27.2406 30.0187 27.6711 30.0187 28.2629C30.0187 28.824 29.6167 29.2852 29.0468 29.2852C28.4457 29.2506 28.0749 28.8202 28.0749 28.2629ZM19.6676 26.6103C18.7308 26.6103 18.0595 27.2714 18.0595 28.2591C18.0595 29.2506 18.7308 29.9078 19.7027 29.9078C20.1711 29.9078 20.6395 29.7772 21.0103 29.4774L20.6746 28.9816C20.4053 29.1815 20.0696 29.3121 19.7378 29.3121C19.3007 29.3121 18.8674 29.1123 18.766 28.555L21.143 28.555C21.143 28.4551 21.143 28.3898 21.143 28.2898C21.1742 27.2714 20.5692 26.6103 19.6676 26.6103ZM19.6676 27.206C20.1047 27.206 20.4053 27.4712 20.4716 27.9632L18.7972 27.9632C18.8635 27.5366 19.1641 27.206 19.6676 27.206ZM37.1224 28.2629L37.1224 25.4266L36.4198 25.4266L36.4198 27.0754C36.1856 26.7794 35.85 26.6142 35.4128 26.6142C34.5073 26.6142 33.8047 27.306 33.8047 28.2629C33.8047 29.2199 34.5073 29.9117 35.4128 29.9117C35.8812 29.9117 36.2169 29.7464 36.4198 29.4505L36.4198 29.8463L37.1224 29.8463L37.1224 28.2629ZM34.5424 28.2629C34.5424 27.7018 34.9093 27.2406 35.5143 27.2406C36.0842 27.2406 36.4862 27.6711 36.4862 28.2629C36.4862 28.824 36.0842 29.2852 35.5143 29.2852C34.9093 29.2506 34.5424 28.8202 34.5424 28.2629ZM11.0221 28.2629L11.0221 26.6795L10.3196 26.6795L10.3196 27.0754C10.0854 26.7794 9.74972 26.6142 9.31257 26.6142C8.40704 26.6142 7.70448 27.306 7.70448 28.2629C7.70448 29.2199 8.40704 29.9117 9.31257 29.9117C9.78094 29.9117 10.1166 29.7464 10.3196 29.4505L10.3196 29.8463L11.0221 29.8463L11.0221 28.2629ZM8.41094 28.2629C8.41094 27.7018 8.77784 27.2406 9.38282 27.2406C9.95268 27.2406 10.3547 27.6711 10.3547 28.2629C10.3547 28.824 9.95268 29.2852 9.38282 29.2852C8.77784 29.2506 8.41094 28.8202 8.41094 28.2629Z" fill="black"/>
</svg>
