<svg width="24" height="24" viewBox="0 0 24 24" fill="none" xmlns="http://www.w3.org/2000/svg">
<path d="M18.2466 15.8763C17.4625 15.1022 16.4836 15.1022 15.7045 15.8763C15.1102 16.4657 14.5158 17.055 13.9315 17.6543C13.7717 17.8191 13.6369 17.8541 13.4421 17.7442C13.0575 17.5345 12.648 17.3646 12.2784 17.1349C10.5554 16.0511 9.11201 14.6577 7.83347 13.0895C7.1992 12.3104 6.63484 11.4764 6.24029 10.5374C6.16038 10.3477 6.17537 10.2228 6.33019 10.068C6.92451 9.49363 7.50385 8.9043 8.08818 8.31498C8.90225 7.49591 8.90225 6.53701 8.08319 5.71295C7.61872 5.24348 7.15425 4.78401 6.68978 4.31454C6.21033 3.83509 5.73587 3.35064 5.25142 2.87618C4.46731 2.11206 3.48843 2.11206 2.70932 2.88118C2.11001 3.47051 1.53566 4.07482 0.926356 4.65415C0.362 5.18854 0.0773249 5.8428 0.0173933 6.60693C-0.0774984 7.85051 0.227154 9.02417 0.656664 10.1679C1.53566 12.5352 2.87413 14.6378 4.49728 16.5656C6.68978 19.1726 9.30679 21.2352 12.3683 22.7235C13.7467 23.3928 15.1751 23.9072 16.7283 23.9921C17.7971 24.052 18.726 23.7823 19.4702 22.9483C19.9796 22.3789 20.554 21.8595 21.0933 21.3151C21.8924 20.5061 21.8974 19.5272 21.1033 18.7281C20.1544 17.7742 19.2005 16.8253 18.2466 15.8763Z" fill="#D10931"/>
<path d="M17.2926 11.8958L19.1355 11.5812C18.8458 9.88813 18.0467 8.35488 16.8331 7.13627C15.5496 5.85274 13.9264 5.04366 12.1385 4.79395L11.8788 6.64683C13.2622 6.84161 14.5208 7.4659 15.5146 8.45976C16.4536 9.39869 17.0679 10.5873 17.2926 11.8958Z" fill="#D10931"/>
<path d="M20.1742 3.88557C18.0467 1.75799 15.3547 0.414527 12.3831 0L12.1234 1.85289C14.6905 2.21247 17.0178 3.37615 18.8557 5.20905C20.5987 6.95207 21.7424 9.15455 22.157 11.5768L23.9999 11.2621C23.5154 8.45535 22.1919 5.90826 20.1742 3.88557Z" fill="#D10931"/>
</svg>
