<svg width="65" height="22" viewBox="0 0 65 22" fill="none" xmlns="http://www.w3.org/2000/svg">
<path d="M28.1661 21.4056H22.9006L26.194 0.662231H31.4592L28.1661 21.4056Z" fill="#00579F"/>
<path d="M47.2543 1.16891C46.2158 0.749193 44.5686 0.285767 42.5316 0.285767C37.3318 0.285767 33.6701 3.11025 33.6477 7.14837C33.6045 10.1277 36.2693 11.7825 38.2624 12.7759C40.2995 13.7911 40.992 14.4536 40.992 15.3584C40.9713 16.7481 39.3459 17.3887 37.8299 17.3887C35.7277 17.3887 34.6013 17.0584 32.8895 16.2853L32.1962 15.9538L31.4594 20.6102C32.6943 21.1834 34.9696 21.6919 37.3318 21.7142C42.8566 21.7142 46.4536 18.9335 46.4958 14.6302C46.5172 12.2688 45.1101 10.4594 42.0764 8.98094C40.2347 8.0318 39.1069 7.3918 39.1069 6.42073C39.1285 5.53788 40.0608 4.63367 42.1397 4.63367C43.8515 4.58931 45.1093 5.00846 46.0622 5.42788L46.5379 5.64817L47.2543 1.16891Z" fill="#00579F"/>
<path d="M54.252 14.0569C54.6863 12.8652 56.3548 8.25312 56.3548 8.25312C56.3327 8.29741 56.787 7.03941 57.047 6.26713L57.4155 8.05455C57.4155 8.05455 58.4127 13.0198 58.6291 14.0569C57.8063 14.0569 55.2927 14.0569 54.252 14.0569ZM60.752 0.662231H56.6791C55.4234 0.662231 54.4691 1.03702 53.927 2.38329L46.1056 21.4052H51.6306C51.6306 21.4052 52.5406 18.845 52.7356 18.2936C53.342 18.2936 58.7162 18.2936 59.4962 18.2936C59.6477 19.0219 60.1241 21.4052 60.1241 21.4052H64.9998L60.752 0.662231Z" fill="#00579F"/>
<path d="M18.5038 0.662231L13.3472 14.8072L12.7837 11.9384C11.8304 8.62819 8.84046 5.03178 5.50391 3.2435L10.2272 21.3836H15.7952L24.0715 0.662231H18.5038Z" fill="#00579F"/>
<path d="M8.55824 0.662231H0.0866422L0 1.0813C6.60832 2.80272 10.9849 6.95199 12.7831 11.9392L10.9414 2.40587C10.6382 1.08102 9.70652 0.705874 8.55824 0.662231Z" fill="#00579F"/>
</svg>
