<svg width="70" height="20" viewBox="0 0 70 20" fill="none" xmlns="http://www.w3.org/2000/svg">
<path fill-rule="evenodd" clip-rule="evenodd" d="M18.6697 0.357178V0.365607C18.6611 0.365607 15.964 0.357179 15.244 2.89209C14.5847 5.21651 12.7261 11.6338 12.6747 11.8106H12.1612C12.1612 11.8106 10.2597 5.25015 9.59187 2.88367C8.87259 0.34875 6.16618 0.357178 6.16618 0.357178H-0.000213623V19.6428H6.16618V8.18935H6.42333H6.67974L10.2769 19.6428H14.559L18.1561 8.19778H18.6697V19.6428H24.8361V0.357178H18.6697Z" fill="#4DB45E"/>
<path fill-rule="evenodd" clip-rule="evenodd" d="M41.194 0.357178C41.194 0.357178 39.3875 0.517177 38.5397 2.37838L34.1719 11.8106H33.6576V0.357178H27.4912V19.6428H33.3154C33.3154 19.6428 35.2076 19.4744 36.0554 17.6216L40.3375 8.18935H40.8518V19.6428H47.0182V0.357178H41.194Z" fill="#4DB45E"/>
<path fill-rule="evenodd" clip-rule="evenodd" d="M49.7589 9.11572V19.6428H55.9246V13.495H62.6053C65.5167 13.495 67.9838 11.6675 68.8995 9.11572H49.7589Z" fill="#4DB45E"/>
<path fill-rule="evenodd" clip-rule="evenodd" d="M62.6059 0.357178H48.8946C49.5796 4.02902 52.3803 6.97657 56.0024 7.93671C56.8252 8.15564 57.6902 8.27356 58.5802 8.27356H69.1488C69.243 7.83564 69.2859 7.38928 69.2859 6.92607C69.2859 3.2963 66.2973 0.357178 62.6059 0.357178Z" fill="url(#paint0_linear_16_167)"/>
<defs>
<linearGradient id="paint0_linear_16_167" x1="48.896" y1="4.31537" x2="69.2859" y2="4.31537" gradientUnits="userSpaceOnUse">
<stop offset="0.3" stop-color="#00B4E6"/>
<stop offset="1" stop-color="#088CCB"/>
</linearGradient>
</defs>
</svg>
